<?xml version="1.0" encoding="UTF-8" standalone="no"?>
<!-- Created with Inkscape (http://www.inkscape.org/) -->

<svg
   xmlns:dc="http://purl.org/dc/elements/1.1/"
   xmlns:cc="http://creativecommons.org/ns#"
   xmlns:rdf="http://www.w3.org/1999/02/22-rdf-syntax-ns#"
   xmlns:svg="http://www.w3.org/2000/svg"
   xmlns="http://www.w3.org/2000/svg"
   xmlns:sodipodi="http://sodipodi.sourceforge.net/DTD/sodipodi-0.dtd"
   xmlns:inkscape="http://www.inkscape.org/namespaces/inkscape"
   version="1.1"
   id="svg107451"
   xml:space="preserve"
   width="800"
   height="800"
   viewBox="0 0 800 800"
   sodipodi:docname="yellow-treasure-chest-pdv.svg"
   inkscape:version="0.92.4 (5da689c313, 2019-01-14)"><metadata
     id="metadata107457"><rdf:RDF><cc:Work
         rdf:about=""><dc:format>image/svg+xml</dc:format><dc:type
           rdf:resource="http://purl.org/dc/dcmitype/StillImage" /><dc:title></dc:title></cc:Work></rdf:RDF></metadata><defs
     id="defs107455"><clipPath
       clipPathUnits="userSpaceOnUse"
       id="clipPath107467"><path
         d="M 0,600 H 600 V 0 H 0 Z"
         id="path107465"
         inkscape:connector-curvature="0" /></clipPath></defs><sodipodi:namedview
     pagecolor="#ffffff"
     bordercolor="#666666"
     borderopacity="1"
     objecttolerance="10"
     gridtolerance="10"
     guidetolerance="10"
     inkscape:pageopacity="0"
     inkscape:pageshadow="2"
     inkscape:window-width="797"
     inkscape:window-height="480"
     id="namedview107453"
     showgrid="false"
     inkscape:zoom="0.295"
     inkscape:cx="400"
     inkscape:cy="400"
     inkscape:window-x="0"
     inkscape:window-y="0"
     inkscape:window-maximized="0"
     inkscape:current-layer="g107459" /><g
     id="g107459"
     inkscape:groupmode="layer"
     inkscape:label="yellow-treasure-chest-pdv"
     transform="matrix(1.3333333,0,0,-1.3333333,0,800)"><g
       id="g107461"><g
         id="g107463"
         clip-path="url(#clipPath107467)"><path
           d="m 303.532,63.151 c 158.784,0 288.29,77.941 288.29,173.498 0,95.562 -129.506,173.502 -288.29,173.502 -158.784,0 -288.291,-77.94 -288.291,-173.502 0,-95.557 129.507,-173.498 288.291,-173.498"
           style="fill:#e6e6e6;fill-opacity:1;fill-rule:evenodd;stroke:none"
           id="path107469"
           inkscape:connector-curvature="0" /><path
           d="M 40.742,327.031 H 559.49 L 493.255,141.963 H 106.979 Z"
           style="fill:#875625;fill-opacity:1;fill-rule:evenodd;stroke:none"
           id="path107471"
           inkscape:connector-curvature="0" /><path
           d="m 44.157,317.49 h 511.92 l 1.506,4.205 H 42.652 Z"
           style="fill:#ba8754;fill-opacity:1;fill-rule:evenodd;stroke:none"
           id="path107473"
           inkscape:connector-curvature="0" /><path
           d="M 45.662,313.282 H 554.57 l 1.507,4.208 H 44.157 Z"
           style="fill:#754d26;fill-opacity:1;fill-rule:evenodd;stroke:none"
           id="path107475"
           inkscape:connector-curvature="0" /><path
           d="m 59.193,275.479 h 481.848 l 1.503,4.205 H 57.688 Z"
           style="fill:#ba8754;fill-opacity:1;fill-rule:evenodd;stroke:none"
           id="path107477"
           inkscape:connector-curvature="0" /><path
           d="m 60.698,271.271 h 478.836 l 1.507,4.208 H 59.193 Z"
           style="fill:#754d26;fill-opacity:1;fill-rule:evenodd;stroke:none"
           id="path107479"
           inkscape:connector-curvature="0" /><path
           d="m 71.914,239.938 h 456.404 l 1.507,4.206 H 70.408 Z"
           style="fill:#ba8754;fill-opacity:1;fill-rule:evenodd;stroke:none"
           id="path107481"
           inkscape:connector-curvature="0" /><path
           d="m 73.419,235.732 h 453.396 l 1.503,4.206 H 71.914 Z"
           style="fill:#754d26;fill-opacity:1;fill-rule:evenodd;stroke:none"
           id="path107483"
           inkscape:connector-curvature="0" /><path
           d="m 81.9,212.037 h 436.434 l 1.506,4.203 H 80.395 Z"
           style="fill:#ba8754;fill-opacity:1;fill-rule:evenodd;stroke:none"
           id="path107485"
           inkscape:connector-curvature="0" /><path
           d="m 83.405,207.829 h 433.422 l 1.507,4.208 H 81.9 Z"
           style="fill:#754d26;fill-opacity:1;fill-rule:evenodd;stroke:none"
           id="path107487"
           inkscape:connector-curvature="0" /><path
           d="m 90.431,188.202 h 419.372 l 1.507,4.205 H 88.924 Z"
           style="fill:#ba8754;fill-opacity:1;fill-rule:evenodd;stroke:none"
           id="path107489"
           inkscape:connector-curvature="0" /><path
           d="m 91.936,183.996 h 416.361 l 1.506,4.206 H 90.431 Z"
           style="fill:#754d26;fill-opacity:1;fill-rule:evenodd;stroke:none"
           id="path107491"
           inkscape:connector-curvature="0" /><path
           d="m 97.958,167.172 h 404.316 l 1.507,4.206 H 96.451 Z"
           style="fill:#ba8754;fill-opacity:1;fill-rule:evenodd;stroke:none"
           id="path107493"
           inkscape:connector-curvature="0" /><path
           d="m 99.462,162.967 h 401.309 l 1.503,4.205 H 97.958 Z"
           style="fill:#754d26;fill-opacity:1;fill-rule:evenodd;stroke:none"
           id="path107495"
           inkscape:connector-curvature="0" /><path
           d="M 40.742,327.031 H 559.49 c 4.673,115.314 -7.308,199.28 -66.235,194.88 H 106.979 c -58.926,4.4 -70.909,-79.566 -66.237,-194.88"
           style="fill:#996633;fill-opacity:1;fill-rule:evenodd;stroke:none"
           id="path107497"
           inkscape:connector-curvature="0" /><path
           d="m 39.934,355.764 h 520.367 c -0.021,-1.396 -0.044,-2.798 -0.071,-4.205 H 40.004 c -0.027,1.407 -0.05,2.809 -0.07,4.205"
           style="fill:#754d26;fill-opacity:1;fill-rule:evenodd;stroke:none"
           id="path107499"
           inkscape:connector-curvature="0" /><path
           d="m 39.88,359.97 h 520.473 c -0.014,-1.396 -0.032,-2.798 -0.052,-4.206 H 39.934 c -0.021,1.408 -0.039,2.81 -0.054,4.206"
           style="fill:#ba8754;fill-opacity:1;fill-rule:evenodd;stroke:none"
           id="path107501"
           inkscape:connector-curvature="0" /><path
           d="m 40.391,397.775 h 519.451 c 0.056,-1.392 0.109,-2.796 0.157,-4.206 H 40.233 c 0.049,1.41 0.101,2.814 0.158,4.206"
           style="fill:#754d26;fill-opacity:1;fill-rule:evenodd;stroke:none"
           id="path107503"
           inkscape:connector-curvature="0" /><path
           d="m 40.582,401.981 h 519.071 c 0.068,-1.392 0.131,-2.794 0.189,-4.206 H 40.391 c 0.059,1.412 0.122,2.814 0.191,4.206"
           style="fill:#ba8754;fill-opacity:1;fill-rule:evenodd;stroke:none"
           id="path107505"
           inkscape:connector-curvature="0" /><path
           d="m 43.157,433.316 h 513.919 c 0.169,-1.39 0.33,-2.792 0.484,-4.207 H 42.673 c 0.154,1.415 0.316,2.817 0.484,4.207"
           style="fill:#754d26;fill-opacity:1;fill-rule:evenodd;stroke:none"
           id="path107507"
           inkscape:connector-curvature="0" /><path
           d="m 43.695,437.522 h 512.842 c 0.188,-1.389 0.368,-2.791 0.539,-4.206 H 43.157 c 0.172,1.415 0.352,2.817 0.538,4.206"
           style="fill:#ba8754;fill-opacity:1;fill-rule:evenodd;stroke:none"
           id="path107509"
           inkscape:connector-curvature="0" /><path
           d="m 47.938,461.217 h 504.358 c 0.319,-1.381 0.629,-2.783 0.928,-4.205 H 47.009 c 0.299,1.422 0.609,2.824 0.929,4.205"
           style="fill:#754d26;fill-opacity:1;fill-rule:evenodd;stroke:none"
           id="path107511"
           inkscape:connector-curvature="0" /><path
           d="m 48.961,465.424 h 502.312 c 0.352,-1.379 0.692,-2.784 1.023,-4.207 H 47.938 c 0.331,1.423 0.67,2.828 1.023,4.207"
           style="fill:#ba8754;fill-opacity:1;fill-rule:evenodd;stroke:none"
           id="path107513"
           inkscape:connector-curvature="0" /><path
           d="m 55.393,485.052 h 489.448 c 0.57,-1.368 1.119,-2.773 1.655,-4.207 H 53.737 c 0.535,1.434 1.085,2.839 1.656,4.207"
           style="fill:#754d26;fill-opacity:1;fill-rule:evenodd;stroke:none"
           id="path107515"
           inkscape:connector-curvature="0" /><path
           d="m 57.258,489.258 h 485.716 c 0.643,-1.366 1.266,-2.766 1.867,-4.206 H 55.393 c 0.601,1.44 1.224,2.84 1.865,4.206"
           style="fill:#ba8754;fill-opacity:1;fill-rule:evenodd;stroke:none"
           id="path107517"
           inkscape:connector-curvature="0" /><path
           d="m 67.869,506.083 h 464.496 c 1.143,-1.327 2.247,-2.729 3.311,-4.208 H 64.557 c 1.063,1.479 2.168,2.881 3.312,4.208"
           style="fill:#754d26;fill-opacity:1;fill-rule:evenodd;stroke:none"
           id="path107519"
           inkscape:connector-curvature="0" /><path
           d="m 71.93,510.288 h 456.373 c 1.405,-1.305 2.76,-2.701 4.062,-4.205 H 67.869 c 1.299,1.504 2.655,2.9 4.061,4.205"
           style="fill:#ba8754;fill-opacity:1;fill-rule:evenodd;stroke:none"
           id="path107521"
           inkscape:connector-curvature="0" /><path
           d="m 35.835,334.391 h 32.246 c -4.439,109.589 6.167,190.857 57.81,194.88 h -23.818 c -58.927,4.4 -70.91,-79.566 -66.238,-194.88"
           style="fill:#ffcc00;fill-opacity:1;fill-rule:evenodd;stroke:none"
           id="path107523"
           inkscape:connector-curvature="0" /><path
           d="m 40.742,327.031 -4.907,7.36 h 32.246 l 4.907,-7.36 z"
           style="fill:#d9ae00;fill-opacity:1;fill-rule:evenodd;stroke:none"
           id="path107525"
           inkscape:connector-curvature="0" /><path
           d="m 72.988,327.031 -4.907,7.36 c -3.754,92.636 3.248,165.03 36.695,187.645 5.503,4.265 16.342,7.235 21.115,7.235 l 4.907,-7.36 C 79.154,517.888 68.548,436.62 72.988,327.031"
           style="fill:#ba9500;fill-opacity:1;fill-rule:evenodd;stroke:none"
           id="path107527"
           inkscape:connector-curvature="0" /><path
           d="m 564.398,334.391 h -32.246 c 4.441,109.589 -6.168,190.857 -57.81,194.88 h 23.819 c 58.926,4.4 70.909,-79.566 66.237,-194.88"
           style="fill:#ffcc00;fill-opacity:1;fill-rule:evenodd;stroke:none"
           id="path107529"
           inkscape:connector-curvature="0" /><path
           d="m 559.49,327.031 4.908,7.36 h -32.246 l -4.908,-7.36 z"
           style="fill:#d9ae00;fill-opacity:1;fill-rule:evenodd;stroke:none"
           id="path107531"
           inkscape:connector-curvature="0" /><path
           d="m 527.244,327.031 4.908,7.36 c 3.752,92.636 -3.247,165.03 -36.695,187.645 -5.502,4.265 -16.343,7.235 -21.115,7.235 l -4.906,-7.36 c 51.642,-4.023 62.249,-85.291 57.808,-194.88"
           style="fill:#ffdf5e;fill-opacity:1;fill-rule:evenodd;stroke:none"
           id="path107533"
           inkscape:connector-curvature="0" /><path
           d="m 69.242,336.125 h 461.046 v 15.434 H 69.242 Z"
           style="fill:#ffcc00;fill-opacity:1;fill-rule:evenodd;stroke:none"
           id="path107535"
           inkscape:connector-curvature="0" /><path
           d="m 530.288,336.124 -2.871,-4.644 H 72.83 l -3.587,4.644 z"
           style="fill:#d9ae00;fill-opacity:1;fill-rule:evenodd;stroke:none"
           id="path107537"
           inkscape:connector-curvature="0" /><path
           d="m 89.226,367.906 c 5.068,0 9.201,4.133 9.201,9.2 0,5.069 -4.133,9.202 -9.201,9.202 -5.067,0 -9.201,-4.133 -9.201,-9.202 0,-5.067 4.134,-9.2 9.201,-9.2"
           style="fill:#ffcc00;fill-opacity:1;fill-rule:evenodd;stroke:none"
           id="path107539"
           inkscape:connector-curvature="0" /><path
           d="m 87.911,372.544 c 3.297,0 5.988,2.689 5.988,5.986 0,3.299 -2.691,5.989 -5.988,5.989 -3.298,0 -5.987,-2.69 -5.987,-5.989 0,-3.297 2.689,-5.986 5.987,-5.986"
           style="fill:#ffd942;fill-opacity:1;fill-rule:evenodd;stroke:none"
           id="path107541"
           inkscape:connector-curvature="0" /><path
           d="m 86.269,377.29 c 1.648,0 2.994,1.346 2.994,2.994 0,1.648 -1.346,2.994 -2.994,2.994 -1.649,0 -2.995,-1.346 -2.995,-2.994 0,-1.648 1.346,-2.994 2.995,-2.994"
           style="fill:#ffe88a;fill-opacity:1;fill-rule:evenodd;stroke:none"
           id="path107543"
           inkscape:connector-curvature="0" /><path
           d="m 92.217,423.242 c 5.081,0 9.201,-3.645 9.201,-8.139 0,-4.495 -4.12,-8.138 -9.201,-8.138 -5.081,0 -9.201,3.643 -9.201,8.138 0,4.494 4.12,8.139 9.201,8.139"
           style="fill:#ffcc00;fill-opacity:1;fill-rule:evenodd;stroke:none"
           id="path107545"
           inkscape:connector-curvature="0" /><path
           d="m 90.903,421.659 c 3.306,0 5.988,-2.372 5.988,-5.297 0,-2.924 -2.682,-5.296 -5.988,-5.296 -3.307,0 -5.986,2.372 -5.986,5.296 0,2.925 2.679,5.297 5.986,5.297"
           style="fill:#ffd942;fill-opacity:1;fill-rule:evenodd;stroke:none"
           id="path107547"
           inkscape:connector-curvature="0" /><path
           d="m 89.26,420.56 c 1.654,0 2.995,-1.185 2.995,-2.647 0,-1.463 -1.341,-2.648 -2.995,-2.648 -1.653,0 -2.993,1.185 -2.993,2.648 0,1.462 1.34,2.647 2.993,2.647"
           style="fill:#ffe88a;fill-opacity:1;fill-rule:evenodd;stroke:none"
           id="path107549"
           inkscape:connector-curvature="0" /><path
           d="m 97.322,454.507 c 5.081,0 9.199,-3.169 9.199,-7.076 0,-3.908 -4.118,-7.076 -9.199,-7.076 -5.082,0 -9.201,3.168 -9.201,7.076 0,3.907 4.119,7.076 9.201,7.076"
           style="fill:#ffcc00;fill-opacity:1;fill-rule:evenodd;stroke:none"
           id="path107551"
           inkscape:connector-curvature="0" /><path
           d="m 96.008,453.131 c 3.306,0 5.986,-2.062 5.986,-4.603 0,-2.544 -2.68,-4.606 -5.986,-4.606 -3.307,0 -5.988,2.062 -5.988,4.606 0,2.541 2.681,4.603 5.988,4.603"
           style="fill:#ffd942;fill-opacity:1;fill-rule:evenodd;stroke:none"
           id="path107553"
           inkscape:connector-curvature="0" /><path
           d="m 94.364,452.176 c 1.654,0 2.994,-1.03 2.994,-2.301 0,-1.272 -1.34,-2.303 -2.994,-2.303 -1.653,0 -2.992,1.031 -2.992,2.303 0,1.271 1.339,2.301 2.992,2.301"
           style="fill:#ffe88a;fill-opacity:1;fill-rule:evenodd;stroke:none"
           id="path107555"
           inkscape:connector-curvature="0" /><path
           d="m 104.86,479.568 c 5.081,0 9.201,-2.691 9.201,-6.012 0,-3.321 -4.12,-6.014 -9.201,-6.014 -5.081,0 -9.199,2.693 -9.199,6.014 0,3.321 4.118,6.012 9.199,6.012"
           style="fill:#ffcc00;fill-opacity:1;fill-rule:evenodd;stroke:none"
           id="path107557"
           inkscape:connector-curvature="0" /><path
           d="m 103.546,478.399 c 3.308,0 5.988,-1.751 5.988,-3.912 0,-2.162 -2.68,-3.914 -5.988,-3.914 -3.307,0 -5.986,1.752 -5.986,3.914 0,2.161 2.679,3.912 5.986,3.912"
           style="fill:#ffd942;fill-opacity:1;fill-rule:evenodd;stroke:none"
           id="path107559"
           inkscape:connector-curvature="0" /><path
           d="m 101.904,477.589 c 1.653,0 2.994,-0.876 2.994,-1.956 0,-1.082 -1.341,-1.958 -2.994,-1.958 -1.654,0 -2.994,0.876 -2.994,1.958 0,1.08 1.34,1.956 2.994,1.956"
           style="fill:#ffe88a;fill-opacity:1;fill-rule:evenodd;stroke:none"
           id="path107561"
           inkscape:connector-curvature="0" /><path
           d="m 114.369,501.114 c 5.082,0 9.2,-2.216 9.2,-4.951 0,-2.734 -4.118,-4.95 -9.2,-4.95 -5.08,0 -9.2,2.216 -9.2,4.95 0,2.735 4.12,4.951 9.2,4.951"
           style="fill:#ffcc00;fill-opacity:1;fill-rule:evenodd;stroke:none"
           id="path107563"
           inkscape:connector-curvature="0" /><path
           d="m 113.056,500.151 c 3.306,0 5.987,-1.443 5.987,-3.221 0,-1.779 -2.681,-3.222 -5.987,-3.222 -3.306,0 -5.988,1.443 -5.988,3.222 0,1.778 2.682,3.221 5.988,3.221"
           style="fill:#ffd942;fill-opacity:1;fill-rule:evenodd;stroke:none"
           id="path107565"
           inkscape:connector-curvature="0" /><path
           d="m 111.413,499.484 c 1.653,0 2.994,-0.722 2.994,-1.611 0,-0.89 -1.341,-1.611 -2.994,-1.611 -1.653,0 -2.994,0.721 -2.994,1.611 0,0.889 1.341,1.611 2.994,1.611"
           style="fill:#ffe88a;fill-opacity:1;fill-rule:evenodd;stroke:none"
           id="path107567"
           inkscape:connector-curvature="0" /><path
           d="m 134.216,513.682 c 5.068,0 9.201,1.746 9.201,3.888 0,2.14 -4.133,3.887 -9.201,3.887 -5.068,0 -9.201,-1.747 -9.201,-3.887 0,-2.142 4.133,-3.888 9.201,-3.888"
           style="fill:#ffcc00;fill-opacity:1;fill-rule:evenodd;stroke:none"
           id="path107569"
           inkscape:connector-curvature="0" /><path
           d="m 132.902,515.641 c 3.297,0 5.986,1.137 5.986,2.53 0,1.394 -2.689,2.532 -5.986,2.532 -3.299,0 -5.988,-1.138 -5.988,-2.532 0,-1.393 2.689,-2.53 5.988,-2.53"
           style="fill:#ffd942;fill-opacity:1;fill-rule:evenodd;stroke:none"
           id="path107571"
           inkscape:connector-curvature="0" /><path
           d="m 131.259,517.647 c 1.649,0 2.992,0.569 2.992,1.265 0,0.696 -1.343,1.265 -2.992,1.265 -1.649,0 -2.994,-0.569 -2.994,-1.265 0,-0.696 1.345,-1.265 2.994,-1.265"
           style="fill:#ffe88a;fill-opacity:1;fill-rule:evenodd;stroke:none"
           id="path107573"
           inkscape:connector-curvature="0" /><path
           d="m 512.291,367.906 c 5.067,0 9.2,4.133 9.2,9.2 0,5.069 -4.133,9.202 -9.2,9.202 -5.068,0 -9.201,-4.133 -9.201,-9.202 0,-5.067 4.133,-9.2 9.201,-9.2"
           style="fill:#ffcc00;fill-opacity:1;fill-rule:evenodd;stroke:none"
           id="path107575"
           inkscape:connector-curvature="0" /><path
           d="m 510.483,372.707 c 3.299,0 5.989,2.69 5.989,5.987 0,3.299 -2.69,5.99 -5.989,5.99 -3.297,0 -5.985,-2.691 -5.985,-5.99 0,-3.297 2.688,-5.987 5.985,-5.987"
           style="fill:#ffd942;fill-opacity:1;fill-rule:evenodd;stroke:none"
           id="path107577"
           inkscape:connector-curvature="0" /><path
           d="m 509.059,377.674 c 1.65,0 2.995,1.343 2.995,2.992 0,1.649 -1.345,2.993 -2.995,2.993 -1.648,0 -2.994,-1.344 -2.994,-2.993 0,-1.649 1.346,-2.992 2.994,-2.992"
           style="fill:#ffe88a;fill-opacity:1;fill-rule:evenodd;stroke:none"
           id="path107579"
           inkscape:connector-curvature="0" /><path
           d="m 509.299,423.242 c -5.082,0 -9.201,-3.645 -9.201,-8.139 0,-4.495 4.119,-8.138 9.201,-8.138 5.082,0 9.2,3.643 9.2,8.138 0,4.494 -4.118,8.139 -9.2,8.139"
           style="fill:#ffcc00;fill-opacity:1;fill-rule:evenodd;stroke:none"
           id="path107581"
           inkscape:connector-curvature="0" /><path
           d="m 507.82,422.261 c -3.305,0 -5.988,-2.371 -5.988,-5.295 0,-2.925 2.683,-5.297 5.988,-5.297 3.307,0 5.989,2.372 5.989,5.297 0,2.924 -2.682,5.295 -5.989,5.295"
           style="fill:#ffd942;fill-opacity:1;fill-rule:evenodd;stroke:none"
           id="path107583"
           inkscape:connector-curvature="0" /><path
           d="m 506.506,421.383 c -1.654,0 -2.994,-1.186 -2.994,-2.649 0,-1.462 1.34,-2.648 2.994,-2.648 1.652,0 2.991,1.186 2.991,2.648 0,1.463 -1.339,2.649 -2.991,2.649"
           style="fill:#ffe88a;fill-opacity:1;fill-rule:evenodd;stroke:none"
           id="path107585"
           inkscape:connector-curvature="0" /><path
           d="m 504.193,454.507 c -5.079,0 -9.2,-3.169 -9.2,-7.076 0,-3.908 4.121,-7.076 9.2,-7.076 5.083,0 9.203,3.168 9.203,7.076 0,3.907 -4.12,7.076 -9.203,7.076"
           style="fill:#ffcc00;fill-opacity:1;fill-rule:evenodd;stroke:none"
           id="path107587"
           inkscape:connector-curvature="0" /><path
           d="m 502.496,453.733 c -3.306,0 -5.986,-2.061 -5.986,-4.604 0,-2.544 2.68,-4.605 5.986,-4.605 3.307,0 5.988,2.061 5.988,4.605 0,2.543 -2.681,4.604 -5.988,4.604"
           style="fill:#ffd942;fill-opacity:1;fill-rule:evenodd;stroke:none"
           id="path107589"
           inkscape:connector-curvature="0" /><path
           d="m 501.62,453.135 c -1.654,0 -2.993,-1.032 -2.993,-2.303 0,-1.27 1.339,-2.302 2.993,-2.302 1.653,0 2.995,1.032 2.995,2.302 0,1.271 -1.342,2.303 -2.995,2.303"
           style="fill:#ffe88a;fill-opacity:1;fill-rule:evenodd;stroke:none"
           id="path107591"
           inkscape:connector-curvature="0" /><path
           d="m 496.654,479.568 c -5.079,0 -9.198,-2.691 -9.198,-6.012 0,-3.321 4.119,-6.014 9.198,-6.014 5.083,0 9.202,2.693 9.202,6.014 0,3.321 -4.119,6.012 -9.202,6.012"
           style="fill:#ffcc00;fill-opacity:1;fill-rule:evenodd;stroke:none"
           id="path107593"
           inkscape:connector-curvature="0" /><path
           d="m 494.984,479.057 c -3.305,0 -5.985,-1.752 -5.985,-3.913 0,-2.161 2.68,-3.913 5.985,-3.913 3.307,0 5.989,1.752 5.989,3.913 0,2.161 -2.682,3.913 -5.989,3.913"
           style="fill:#ffd942;fill-opacity:1;fill-rule:evenodd;stroke:none"
           id="path107595"
           inkscape:connector-curvature="0" /><path
           d="m 493.533,478.52 c -1.652,0 -2.994,-0.876 -2.994,-1.957 0,-1.081 1.342,-1.957 2.994,-1.957 1.653,0 2.994,0.876 2.994,1.957 0,1.081 -1.341,1.957 -2.994,1.957"
           style="fill:#ffe88a;fill-opacity:1;fill-rule:evenodd;stroke:none"
           id="path107597"
           inkscape:connector-curvature="0" /><path
           d="m 487.146,501.114 c -5.08,0 -9.202,-2.216 -9.202,-4.951 0,-2.734 4.122,-4.95 9.202,-4.95 5.083,0 9.201,2.216 9.201,4.95 0,2.735 -4.118,4.951 -9.201,4.951"
           style="fill:#ffcc00;fill-opacity:1;fill-rule:evenodd;stroke:none"
           id="path107599"
           inkscape:connector-curvature="0" /><path
           d="m 485.722,500.316 c -3.306,0 -5.988,-1.443 -5.988,-3.222 0,-1.779 2.682,-3.221 5.988,-3.221 3.306,0 5.988,1.442 5.988,3.221 0,1.779 -2.682,3.222 -5.988,3.222"
           style="fill:#ffd942;fill-opacity:1;fill-rule:evenodd;stroke:none"
           id="path107601"
           inkscape:connector-curvature="0" /><path
           d="m 484.408,499.703 c -1.653,0 -2.995,-0.723 -2.995,-1.611 0,-0.89 1.342,-1.611 2.995,-1.611 1.652,0 2.993,0.721 2.993,1.611 0,0.888 -1.341,1.611 -2.993,1.611"
           style="fill:#ffe88a;fill-opacity:1;fill-rule:evenodd;stroke:none"
           id="path107603"
           inkscape:connector-curvature="0" /><path
           d="m 467.3,513.682 c 5.068,0 9.201,1.746 9.201,3.888 0,2.14 -4.133,3.887 -9.201,3.887 -5.068,0 -9.2,-1.747 -9.2,-3.887 0,-2.142 4.132,-3.888 9.2,-3.888"
           style="fill:#ffcc00;fill-opacity:1;fill-rule:evenodd;stroke:none"
           id="path107605"
           inkscape:connector-curvature="0" /><path
           d="m 465.659,515.641 c 3.297,0 5.987,1.137 5.987,2.53 0,1.394 -2.69,2.532 -5.987,2.532 -3.297,0 -5.987,-1.138 -5.987,-2.532 0,-1.393 2.69,-2.53 5.987,-2.53"
           style="fill:#ffd942;fill-opacity:1;fill-rule:evenodd;stroke:none"
           id="path107607"
           inkscape:connector-curvature="0" /><path
           d="m 463.604,517.647 c 1.647,0 2.994,0.569 2.994,1.265 0,0.696 -1.347,1.265 -2.994,1.265 -1.65,0 -2.995,-0.569 -2.995,-1.265 0,-0.696 1.345,-1.265 2.995,-1.265"
           style="fill:#ffe88a;fill-opacity:1;fill-rule:evenodd;stroke:none"
           id="path107609"
           inkscape:connector-curvature="0" /><path
           d="M 35.266,317.172 H 67.512 L 122.561,132.105 H 101.503 Z"
           style="fill:#d9ae00;fill-opacity:1;fill-rule:evenodd;stroke:none"
           id="path107611"
           inkscape:connector-curvature="0" /><path
           d="m 35.266,317.172 5.476,9.859 h 32.246 l -5.476,-9.859 z"
           style="fill:#ffcc00;fill-opacity:1;fill-rule:evenodd;stroke:none"
           id="path107613"
           inkscape:connector-curvature="0" /><path
           d="m 122.561,132.105 5.476,9.858 -55.049,185.068 -5.476,-9.859 z"
           style="fill:#ba9500;fill-opacity:1;fill-rule:evenodd;stroke:none"
           id="path107615"
           inkscape:connector-curvature="0" /><path
           d="M 564.968,317.172 H 532.721 L 477.675,132.105 h 21.054 z"
           style="fill:#d9ae00;fill-opacity:1;fill-rule:evenodd;stroke:none"
           id="path107617"
           inkscape:connector-curvature="0" /><path
           d="m 564.968,317.172 -5.478,9.859 h -32.246 l 5.477,-9.859 z"
           style="fill:#ffcc00;fill-opacity:1;fill-rule:evenodd;stroke:none"
           id="path107619"
           inkscape:connector-curvature="0" /><path
           d="m 477.675,132.105 -5.478,9.858 55.047,185.068 5.477,-9.859 z"
           style="fill:#ffdf5e;fill-opacity:1;fill-rule:evenodd;stroke:none"
           id="path107621"
           inkscape:connector-curvature="0" /><path
           d="m 124.002,134.699 352.194,0.063 4.925,16.19 -361.828,-0.062 z"
           style="fill:#d9ae00;fill-opacity:1;fill-rule:evenodd;stroke:none"
           id="path107623"
           inkscape:connector-curvature="0" /><path
           d="m 104.303,305.189 c 5.081,0 9.768,-4.121 10.467,-9.2 0.699,-5.081 -2.854,-9.2 -7.935,-9.2 -5.082,0 -9.767,4.119 -10.466,9.2 -0.7,5.079 2.854,9.2 7.934,9.2"
           style="fill:#ffcc00;fill-opacity:1;fill-rule:evenodd;stroke:none"
           id="path107625"
           inkscape:connector-curvature="0" /><path
           d="m 103.236,303.399 c 3.306,0 6.355,-2.681 6.81,-5.987 0.455,-3.308 -1.858,-5.986 -5.164,-5.986 -3.306,0 -6.356,2.678 -6.811,5.986 -0.454,3.306 1.858,5.987 5.165,5.987"
           style="fill:#ffd942;fill-opacity:1;fill-rule:evenodd;stroke:none"
           id="path107627"
           inkscape:connector-curvature="0" /><path
           d="m 101.764,302.158 c 1.653,0 3.177,-1.34 3.404,-2.994 0.228,-1.652 -0.928,-2.992 -2.582,-2.992 -1.653,0 -3.176,1.34 -3.404,2.992 -0.227,1.654 0.929,2.994 2.582,2.994"
           style="fill:#ffe88a;fill-opacity:1;fill-rule:evenodd;stroke:none"
           id="path107629"
           inkscape:connector-curvature="0" /><path
           d="m 498.18,305.189 c -5.082,0 -9.768,-4.121 -10.467,-9.2 -0.7,-5.081 2.853,-9.2 7.935,-9.2 5.08,0 9.767,4.119 10.465,9.2 0.7,5.079 -2.852,9.2 -7.933,9.2"
           style="fill:#ffcc00;fill-opacity:1;fill-rule:evenodd;stroke:none"
           id="path107631"
           inkscape:connector-curvature="0" /><path
           d="m 496.382,303.399 c -3.308,0 -6.357,-2.681 -6.81,-5.987 -0.457,-3.308 1.855,-5.986 5.16,-5.986 3.308,0 6.359,2.678 6.813,5.986 0.457,3.306 -1.857,5.987 -5.163,5.987"
           style="fill:#ffd942;fill-opacity:1;fill-rule:evenodd;stroke:none"
           id="path107633"
           inkscape:connector-curvature="0" /><path
           d="m 494.86,302.158 c -1.651,0 -3.177,-1.34 -3.403,-2.994 -0.228,-1.652 0.929,-2.992 2.58,-2.992 1.654,0 3.179,1.34 3.406,2.992 0.228,1.654 -0.927,2.994 -2.583,2.994"
           style="fill:#ffe88a;fill-opacity:1;fill-rule:evenodd;stroke:none"
           id="path107635"
           inkscape:connector-curvature="0" /><path
           d="m 489.451,266.623 c -4.434,0 -8.524,-3.594 -9.133,-8.03 -0.611,-4.432 2.491,-8.028 6.923,-8.028 4.435,0 8.524,3.596 9.135,8.028 0.61,4.436 -2.492,8.03 -6.925,8.03"
           style="fill:#ffcc00;fill-opacity:1;fill-rule:evenodd;stroke:none"
           id="path107637"
           inkscape:connector-curvature="0" /><path
           d="m 488.357,265.063 c -2.885,0 -5.546,-2.339 -5.944,-5.227 -0.396,-2.886 1.62,-5.224 4.505,-5.224 2.886,0 5.547,2.338 5.944,5.224 0.397,2.888 -1.62,5.227 -4.505,5.227"
           style="fill:#ffd942;fill-opacity:1;fill-rule:evenodd;stroke:none"
           id="path107639"
           inkscape:connector-curvature="0" /><path
           d="m 487.02,263.979 c -1.441,0 -2.775,-1.168 -2.973,-2.611 -0.198,-1.445 0.812,-2.616 2.255,-2.616 1.442,0 2.773,1.171 2.971,2.616 0.199,1.443 -0.811,2.611 -2.253,2.611"
           style="fill:#ffe88a;fill-opacity:1;fill-rule:evenodd;stroke:none"
           id="path107641"
           inkscape:connector-curvature="0" /><path
           d="m 482.536,234.085 c -3.785,0 -7.279,-3.072 -7.802,-6.859 -0.52,-3.788 2.129,-6.86 5.914,-6.86 3.79,0 7.284,3.072 7.803,6.86 0.524,3.787 -2.127,6.859 -5.915,6.859"
           style="fill:#ffcc00;fill-opacity:1;fill-rule:evenodd;stroke:none"
           id="path107643"
           inkscape:connector-curvature="0" /><path
           d="m 481.361,232.747 c -2.465,0 -4.736,-1.996 -5.078,-4.461 -0.339,-2.464 1.386,-4.46 3.851,-4.46 2.464,0 4.737,1.996 5.077,4.46 0.338,2.465 -1.386,4.461 -3.85,4.461"
           style="fill:#ffd942;fill-opacity:1;fill-rule:evenodd;stroke:none"
           id="path107645"
           inkscape:connector-curvature="0" /><path
           d="m 480.557,231.825 c -1.234,0 -2.369,-1 -2.539,-2.231 -0.171,-1.232 0.691,-2.232 1.924,-2.232 1.233,0 2.37,1 2.537,2.232 0.171,1.231 -0.691,2.231 -1.922,2.231"
           style="fill:#ffe88a;fill-opacity:1;fill-rule:evenodd;stroke:none"
           id="path107647"
           inkscape:connector-curvature="0" /><path
           d="m 474.84,206.451 c -3.14,0 -6.035,-2.547 -6.471,-5.687 -0.43,-3.14 1.765,-5.687 4.904,-5.687 3.144,0 6.04,2.547 6.47,5.687 0.432,3.14 -1.762,5.687 -4.903,5.687"
           style="fill:#ffcc00;fill-opacity:1;fill-rule:evenodd;stroke:none"
           id="path107649"
           inkscape:connector-curvature="0" /><path
           d="m 473.692,205.344 c -2.043,0 -3.927,-1.657 -4.209,-3.699 -0.282,-2.044 1.147,-3.702 3.191,-3.702 2.045,0 3.93,1.658 4.21,3.702 0.281,2.042 -1.148,3.699 -3.192,3.699"
           style="fill:#ffd942;fill-opacity:1;fill-rule:evenodd;stroke:none"
           id="path107651"
           inkscape:connector-curvature="0" /><path
           d="m 472.851,204.578 c -1.024,0 -1.966,-0.829 -2.107,-1.851 -0.14,-1.023 0.574,-1.851 1.597,-1.851 1.02,0 1.963,0.828 2.103,1.851 0.141,1.022 -0.574,1.851 -1.593,1.851"
           style="fill:#ffe88a;fill-opacity:1;fill-rule:evenodd;stroke:none"
           id="path107653"
           inkscape:connector-curvature="0" /><path
           d="m 468.178,182.118 c -2.493,0 -4.794,-2.019 -5.136,-4.515 -0.343,-2.492 1.401,-4.514 3.895,-4.514 2.495,0 4.792,2.022 5.136,4.514 0.343,2.496 -1.4,4.515 -3.895,4.515"
           style="fill:#ffcc00;fill-opacity:1;fill-rule:evenodd;stroke:none"
           id="path107655"
           inkscape:connector-curvature="0" /><path
           d="m 467.17,181.239 c -1.623,0 -3.119,-1.313 -3.344,-2.939 -0.222,-1.62 0.913,-2.936 2.536,-2.936 1.623,0 3.12,1.316 3.343,2.936 0.224,1.626 -0.913,2.939 -2.535,2.939"
           style="fill:#ffd942;fill-opacity:1;fill-rule:evenodd;stroke:none"
           id="path107657"
           inkscape:connector-curvature="0" /><path
           d="m 466.48,180.634 c -0.812,0 -1.56,-0.657 -1.671,-1.471 -0.114,-0.812 0.456,-1.47 1.268,-1.47 0.81,0 1.558,0.658 1.671,1.47 0.111,0.814 -0.457,1.471 -1.268,1.471"
           style="fill:#ffe88a;fill-opacity:1;fill-rule:evenodd;stroke:none"
           id="path107659"
           inkscape:connector-curvature="0" /><path
           d="m 119.293,150.89 4.167,6.462 h 354.323 l 3.338,-6.4 z"
           style="fill:#ffcc00;fill-opacity:1;fill-rule:evenodd;stroke:none"
           id="path107661"
           inkscape:connector-curvature="0" /><path
           d="m 75.098,299.111 449.054,0.061 4.924,16.191 -458.688,-0.061 z"
           style="fill:#d9ae00;fill-opacity:1;fill-rule:evenodd;stroke:none"
           id="path107663"
           inkscape:connector-curvature="0" /><path
           d="m 70.388,315.302 4.168,6.461 h 451.185 l 3.335,-6.4 z"
           style="fill:#ffcc00;fill-opacity:1;fill-rule:evenodd;stroke:none"
           id="path107665"
           inkscape:connector-curvature="0" /><path
           d="m 113.032,266.623 c 4.434,0 8.524,-3.594 9.133,-8.03 0.611,-4.432 -2.489,-8.028 -6.924,-8.028 -4.434,0 -8.524,3.596 -9.133,8.028 -0.611,4.436 2.489,8.03 6.924,8.03"
           style="fill:#ffcc00;fill-opacity:1;fill-rule:evenodd;stroke:none"
           id="path107667"
           inkscape:connector-curvature="0" /><path
           d="m 112.1,265.063 c 2.885,0 5.546,-2.339 5.943,-5.227 0.397,-2.886 -1.62,-5.224 -4.505,-5.224 -2.886,0 -5.548,2.338 -5.944,5.224 -0.398,2.888 1.62,5.227 4.506,5.227"
           style="fill:#ffd942;fill-opacity:1;fill-rule:evenodd;stroke:none"
           id="path107669"
           inkscape:connector-curvature="0" /><path
           d="m 110.815,263.979 c 1.443,0 2.773,-1.168 2.973,-2.611 0.198,-1.445 -0.811,-2.616 -2.254,-2.616 -1.442,0 -2.772,1.171 -2.972,2.616 -0.198,1.443 0.811,2.611 2.253,2.611"
           style="fill:#ffe88a;fill-opacity:1;fill-rule:evenodd;stroke:none"
           id="path107671"
           inkscape:connector-curvature="0" /><path
           d="m 119.945,234.085 c 3.788,0 7.281,-3.072 7.802,-6.859 0.521,-3.788 -2.126,-6.86 -5.914,-6.86 -3.788,0 -7.282,3.072 -7.802,6.86 -0.521,3.787 2.127,6.859 5.914,6.859"
           style="fill:#ffcc00;fill-opacity:1;fill-rule:evenodd;stroke:none"
           id="path107673"
           inkscape:connector-curvature="0" /><path
           d="m 119.15,232.747 c 2.464,0 4.737,-1.996 5.076,-4.461 0.34,-2.464 -1.384,-4.46 -3.849,-4.46 -2.464,0 -4.738,1.996 -5.077,4.46 -0.339,2.465 1.385,4.461 3.85,4.461"
           style="fill:#ffd942;fill-opacity:1;fill-rule:evenodd;stroke:none"
           id="path107675"
           inkscape:connector-curvature="0" /><path
           d="m 118.052,231.825 c 1.233,0 2.369,-1 2.538,-2.231 0.171,-1.232 -0.692,-2.232 -1.924,-2.232 -1.233,0 -2.369,1 -2.539,2.232 -0.169,1.231 0.693,2.231 1.925,2.231"
           style="fill:#ffe88a;fill-opacity:1;fill-rule:evenodd;stroke:none"
           id="path107677"
           inkscape:connector-curvature="0" /><path
           d="m 127.644,206.451 c 3.139,0 6.036,-2.547 6.468,-5.687 0.431,-3.14 -1.763,-5.687 -4.904,-5.687 -3.141,0 -6.038,2.547 -6.469,5.687 -0.432,3.14 1.763,5.687 4.905,5.687"
           style="fill:#ffcc00;fill-opacity:1;fill-rule:evenodd;stroke:none"
           id="path107679"
           inkscape:connector-curvature="0" /><path
           d="m 126.982,205.344 c 2.044,0 3.929,-1.657 4.209,-3.699 0.282,-2.044 -1.147,-3.702 -3.191,-3.702 -2.043,0 -3.928,1.658 -4.21,3.702 -0.281,2.042 1.149,3.699 3.192,3.699"
           style="fill:#ffd942;fill-opacity:1;fill-rule:evenodd;stroke:none"
           id="path107681"
           inkscape:connector-curvature="0" /><path
           d="m 126.073,204.578 c 1.022,0 1.965,-0.829 2.106,-1.851 0.141,-1.023 -0.575,-1.851 -1.597,-1.851 -1.022,0 -1.963,0.828 -2.105,1.851 -0.14,1.022 0.575,1.851 1.596,1.851"
           style="fill:#ffe88a;fill-opacity:1;fill-rule:evenodd;stroke:none"
           id="path107683"
           inkscape:connector-curvature="0" /><path
           d="m 134.304,182.118 c 2.493,0 4.793,-2.019 5.137,-4.515 0.342,-2.492 -1.401,-4.514 -3.895,-4.514 -2.494,0 -4.794,2.022 -5.136,4.514 -0.344,2.496 1.4,4.515 3.894,4.515"
           style="fill:#ffcc00;fill-opacity:1;fill-rule:evenodd;stroke:none"
           id="path107685"
           inkscape:connector-curvature="0" /><path
           d="m 133.779,181.239 c 1.623,0 3.119,-1.313 3.344,-2.939 0.222,-1.62 -0.913,-2.936 -2.535,-2.936 -1.623,0 -3.12,1.316 -3.343,2.936 -0.223,1.626 0.912,2.939 2.534,2.939"
           style="fill:#ffd942;fill-opacity:1;fill-rule:evenodd;stroke:none"
           id="path107687"
           inkscape:connector-curvature="0" /><path
           d="m 133.057,180.634 c 0.812,0 1.56,-0.66 1.671,-1.471 0.112,-0.812 -0.456,-1.47 -1.267,-1.47 -0.812,0 -1.559,0.658 -1.672,1.47 -0.111,0.811 0.457,1.471 1.268,1.471"
           style="fill:#ffe88a;fill-opacity:1;fill-rule:evenodd;stroke:none"
           id="path107689"
           inkscape:connector-curvature="0" /><path
           d="m 258.716,280.267 c 18.927,20.485 73.19,20.091 91.913,0 v -17.976 h -91.913 z"
           style="fill:#ffc054;fill-opacity:1;fill-rule:evenodd;stroke:none"
           id="path107691"
           inkscape:connector-curvature="0" /><path
           d="m 258.716,262.291 c 18.927,20.485 73.19,20.091 91.913,0 l -11.738,-32.788 h -68.439 z"
           style="fill:#ffa100;fill-opacity:1;fill-rule:evenodd;stroke:none"
           id="path107693"
           inkscape:connector-curvature="0" /><path
           d="m 304.671,269.346 c 6.038,0 10.935,-3.629 10.935,-8.109 0,-3.708 -3.36,-6.837 -7.946,-7.8 l 0.999,-3.16 3.989,-12.614 h -7.977 -7.978 l 3.989,12.614 1,3.16 c -4.584,0.963 -7.943,4.092 -7.943,7.8 0,4.48 4.895,8.109 10.932,8.109"
           style="fill:#1a1a1a;fill-opacity:1;fill-rule:evenodd;stroke:none"
           id="path107695"
           inkscape:connector-curvature="0" /></g></g></g></svg>